{"title":"Luba - SpoiledVirgins - Brutal Defloration For Teen Babe","uid":11327368,"size":262272322,"categoryP":"porn","categoryS":"movie_clips","magnet":"?xt=urn:btih:14aac522e7ddf070557b4091f88c1b7340715cac&amp;dn=Luba+-+SpoiledVirgins+-+Brutal+Defloration+For+Teen+Babe&amp;tr=udp%3A%2F%2Ftracker.openbittorrent.com%3A80&amp;tr=udp%3A%2F%2Fopen.demonii.com%3A1337&amp;tr=udp%3A%2F%2Ftracker.coppersurfer.tk%3A6969&amp;tr=udp%3A%2F%2Fexodus.desync.com%3A6969","seeders":21,"leechers":5,"uploader":"athklym","files":-1,"time":1414637920,"description":" &lt;a href=&quot;http://bayimg.com/CAcHIaaGI&quot; rel=&quot;nofollow&quot; target=&quot;_NEW&quot;&gt;http://bayimg.com/CAcHIaaGI&lt;/a&gt;\n\nBrutal defloration for teen babe Luba.\nThis bitch now loves fat sausages more than anything else. Her first sex was wild and hot as two sexually obsessed studs fucked her and fed with tasty hot cum. Anya tried not to scream from pain when the huge cock tore her thin hymen. Teen girl enjoyed everything her friends did. She sucked both cocks and rode them eagerly. Her tight hole was pounced hard and Anya screamed from orgasm. \n\nLuba_Brutal_Defloration_For_Teen_Babe_SpoiledVirgins.mp4\nFormat                                   : MPEG-4\nFormat profile                           : Base Media\nCodec ID                                 : isom\nFile size                                : 250 MiB\nDuration                                 : 25mn 18s\nOverall bit rate mode                    : Variable\nOverall bit rate                         : 1 382 Kbps\nEncoded date                             : UTC 2014-10-28 22:44:38\nTagged date                              : UTC 2014-10-28 22:44:38\n\nVideo\nID                                       : 1\nFormat                                   : AVC\nFormat/Info                              : Advanced Video Codec\nFormat profile                           : &lt;a class=&quot;__cf_email__&quot; href=&quot;/cdn-cgi/l/email-protection&quot; data-cfemail=&quot;a0e8c9c7c8e0ec938e91&quot;&gt;[email&amp;#160;protected]&lt;/a&gt;&lt;script cf-hash='f9e31' type=&quot;text/javascript&quot;&gt;\n/* &lt;![CDATA[ */!function(){try{var t=&quot;currentScript&quot;in document?document.currentScript:function(){for(var t=document.getElementsByTagName(&quot;script&quot;),e=t.length;e--;)if(t[e].getAttribute(&quot;cf-hash&quot;))return t[e]}();if(t&amp;&amp;t.previousSibling){var e,r,n,i,c=t.previousSibling,a=c.getAttribute(&quot;data-cfemail&quot;);if(a){for(e=&quot;&quot;,r=parseInt(a.substr(0,2),16),n=2;a.length-n;n+=2)i=parseInt(a.substr(n,2),16)^r,e+=String.fromCharCode(i);e=document.createTextNode(e),c.parentNode.replaceChild(e,c)}}}catch(u){}}();/* ]]&gt; */&lt;/script&gt;\nFormat settings, CABAC                   : Yes\nFormat settings, ReFrames                : 4 frames\nCodec ID                                 : avc1\nCodec ID/Info                            : Advanced Video Coding\nDuration                                 : 25mn 18s\nBit rate                                 : 1 362 Kbps\nMaximum bit rate                         : 2 409 Kbps\nWidth                                    : 960 pixels\nHeight                                   : 540 pixels\nDisplay aspect ratio                     : 16:9\nFrame rate mode                          : Constant\nFrame rate                               : 29.970 fps\nColor space                              : YUV\nChroma subsampling                       : 4:2:0\nBit depth                                : 8 bits\nScan type                                : Progressive\nBits/(Pixel*Frame)                       : 0.088\nStream size                              : 247 MiB (99%)\nWriting library                          : x264 core 142 r2431 ac76440\nEncoding settings                        : cabac=1 / ref=3 / deblock=1:0:0 / analyse=0x3:0x113 / me=hex / subme=7 / psy=1 / psy_rd=1.00:0.00 / mixed_ref=1 / me_range=16 / chroma_me=1 / trellis=1 / 8x8dct=1 / cqm=0 / deadzone=21,11 / fast_pskip=1 / chroma_qp_offset=-2 / threads=3 / lookahead_threads=1 / sliced_threads=0 / nr=0 / decimate=1 / interlaced=0 / bluray_compat=0 / constrained_intra=0 / bframes=3 / b_pyramid=2 / b_adapt=1 / b_bias=0 / direct=1 / weightb=1 / open_gop=0 / weightp=2 / keyint=300 / keyint_min=29 / scenecut=40 / intra_refresh=0 / rc_lookahead=40 / rc=2pass / mbtree=1 / bitrate=1362 / ratetol=1.0 / qcomp=0.60 / qpmin=0 / qpmax=69 / qpstep=4 / cplxblur=20.0 / qblur=0.5 / ip_ratio=1.40 / aq=1:1.00\nEncoded date                             : UTC 2014-10-28 22:44:38\nTagged date                              : UTC 2014-10-28 22:44:46\n\nAudio\nID                                       : 2\nFormat                                   : AAC\nFormat/Info                              : Advanced Audio Codec\nFormat profile                           : HE-AACv2 / HE-AAC / LC\nCodec ID                                 : 40\nDuration                                 : 25mn 18s\nBit rate mode                            : Variable\nBit rate                                 : 16.0 Kbps\nMaximum bit rate                         : 19.1 Kbps\nChannel(s)                               : 2 channels / 1 channel / 1 channel\nChannel positions                        : Front: L R / Front: C / Front: C\nSampling rate                            : 48.0 KHz / 48.0 KHz / 24.0 KHz\nCompression mode                         : Lossy\nStream size                              : 2.90 MiB (1%)\nLanguage                                 : Russian\nEncoded date                             : UTC 2014-10-28 21:48:56\nTagged date                              : UTC 2014-10-28 22:44:46","torrent":{"xt":"urn:btih:14aac522e7ddf070557b4091f88c1b7340715cac","amp;dn":"Luba+-+SpoiledVirgins+-+Brutal+Defloration+For+Teen+Babe","amp;tr":["udp%3A%2F%2Ftracker.openbittorrent.com%3A80","udp%3A%2F%2Fopen.demonii.com%3A1337","udp%3A%2F%2Ftracker.coppersurfer.tk%3A6969","udp%3A%2F%2Fexodus.desync.com%3A6969"],"infoHash":"14aac522e7ddf070557b4091f88c1b7340715cac","infoHashBuffer":{"type":"Buffer","data":[20,170,197,34,231,221,240,112,85,123,64,145,248,140,27,115,64,113,92,172]},"announce":[],"urlList":[]}}